<svg width="1459" height="185" viewBox="0 0 1459 185" fill="none" xmlns="http://www.w3.org/2000/svg">
<path opacity="0.1" d="M1458.9 33.2556L1428.52 44.0894C1398.15 54.5182 1337.4 76.7931 1276.65 76.4894C1215.9 76.7931 1155.15 54.5181 1094.4 87.2219C1033.65 119.318 972.896 179.359 912.146 184.422C851.396 189.484 790.646 141.593 729.896 92.6894C669.146 44.3931 608.396 22.1181 547.646 54.8219C486.896 86.9181 480.25 99.7037 419.5 148C358.75 196.904 243.896 108.586 183.146 92.6894C122.396 76.1857 61.6461 169.971 31.2711 148L0.896118 87.2219V0.855606H31.2711C61.6461 0.855606 122.396 0.855606 183.146 0.855606C243.896 0.855606 304.646 0.855606 365.396 0.855606C426.146 0.855606 486.896 0.855606 547.646 0.855606C608.396 0.855606 669.146 0.855606 729.896 0.855606C790.646 0.855606 851.396 0.855606 912.146 0.855606C972.896 0.855606 1033.65 0.855606 1094.4 0.855606C1155.15 0.855606 1215.9 0.855606 1276.65 0.855606C1337.4 0.855606 1398.15 0.855606 1428.52 0.855606H1458.9V33.2556Z" fill="#0DCCC2"/>
</svg>
