<?xml version="1.0" encoding="UTF-8"?>
<svg id="Layer_2" xmlns="http://www.w3.org/2000/svg" viewBox="0 0 497.01 515.35">
    <defs>
        <style>.cls-1{fill:#000;}</style>
    </defs>
    <g id="OBJECTS">
        <g>
            <path class="cls-1"
                  d="M31.86,25.37c.19,.15,.87,.18,1.13,.23,.93,.19,1.86,.38,2.79,.58,2.93,.61,5.87,1.22,8.8,1.84,6.2,1.3,12.4,2.6,18.58,4,2.86,.65,5.66,1.5,8.48,2.27,5.85,1.59,11.73,3.05,17.64,4.38,11.71,2.64,23.53,4.78,35.42,6.45,23.93,3.37,48.11,4.88,72.27,4.77s48.96-1.89,73.22-5.15,47.49-7.84,70.78-13.87c2.93-.76,5.85-1.54,8.76-2.34,.03,0-.03-.01-.04,0-23.61,6.45-47.59,11.51-71.8,15.09s-48.63,5.68-73.09,6.15-49.13-.71-73.49-3.79c-12.11-1.53-24.16-3.54-36.11-6.05-5.85-1.23-11.67-2.58-17.46-4.06-4.26-1.09-8.46-2.4-12.73-3.44-10.69-2.59-21.51-4.7-32.29-6.88-.28-.06-.57-.14-.86-.17h-.01s.02,0,.02,0h0Z"/>
            <path class="cls-1"
                  d="M27.95,.02c.89,11.72,2.07,23.42,3.16,35.12,1.16,12.44,2.34,24.89,3.3,37.35,1.52,19.56,2.62,39.15,1.1,58.75-1.39,17.93-4.67,35.72-9.94,52.91-5.28,17.23-12.59,33.86-21.92,49.28-1.15,1.9-2.33,3.78-3.53,5.65,0,0,.07,.02,.08,0,9.86-14.97,17.65-31.25,23.42-48.21,5.77-16.95,9.54-34.57,11.42-52.38,2.05-19.37,1.51-38.78,.1-58.18-.96-13.32-2.19-26.62-3.44-39.92-1.18-12.46-2.38-24.93-3.49-37.4-.09-.99-.18-1.98-.26-2.98h0Z"/>
            <path class="cls-1"
                  d="M11.98,217.72c8.59,7.43,16.57,15.52,23.85,24.24s14.23,18.48,20.29,28.43c6.13,10.06,11.53,20.55,16.21,31.35s8.6,21.82,11.75,33.1,5.29,22.12,6.83,33.39c.19,1.36,.36,2.72,.53,4.08,0,.06,.22,.05,.22,0-.94-11.3-3.17-22.51-6.04-33.48s-6.71-22.29-11.19-33.02-9.82-21.46-15.81-31.62-12.55-19.75-19.88-28.86-15.02-17.32-23.59-24.91c-1.04-.92-2.09-1.82-3.15-2.71,0,0-.04,0-.04,0h0Z"/>
            <path class="cls-1"
                  d="M326.85,25.1c-1.31,1.5,.99,3.14,2.24,3.65,2.43,.99,5.09,1.62,7.63,2.28,5.38,1.39,10.86,2.41,16.36,3.18,11.23,1.58,22.58,2.21,33.89,2.79,11.92,.61,23.84,.97,35.78,1.1s22.72,.01,34.07-.29c9.9-.27,20.05-.7,29.61-3.53,1.08-.32,2.14-.68,3.2-1.07,.04-.02-.04-.03-.06-.02-9.43,3.41-19.66,4.11-29.6,4.46-10.82,.38-21.66,.48-32.49,.43-11.6-.06-23.2-.34-34.79-.86s-22.54-1.07-33.75-2.32c-5.38-.6-10.75-1.39-16.05-2.48-2.74-.57-5.47-1.22-8.16-1.96-1.33-.37-2.65-.76-3.96-1.18s-2.47-.77-3.43-1.71c-.7-.68-1.18-1.62-.46-2.47h-.01Z"/>
            <path class="cls-1"
                  d="M496.9,29.59c-25.12,13.48-50.25,26.98-74.71,41.62-19.08,11.42-37.61,23.71-55.92,36.32-33.74,23.26-66.54,47.91-98.04,74.14-33.95,28.27-66.42,58.39-96.58,90.69s-59.47,68.61-84.01,106.74c-24.16,37.54-44.4,77.74-58.43,120.17-1.75,5.31-3.41,10.65-4.97,16.02,0,0,.05,.01,.05,0,12.64-43.34,31.84-84.55,55.3-123.07,23.46-38.51,51.11-74.38,81.25-107.88s62.23-64.09,96.17-93.07c31.42-26.83,64.22-52.03,98.01-75.8,16.38-11.52,32.95-22.83,49.87-33.54,23.94-15.16,48.72-28.93,73.63-42.42,6.13-3.32,12.27-6.62,18.4-9.92,0,0-.02,0-.03,0h0Z"/>
            <path class="cls-1"
                  d="M32.13,151.02c-.26,6.22,1.58,12.23,3.09,18.19,1.33,5.25,2.18,10.59,2.58,15.99,.83,11.1-.02,22.34-2.16,33.26-1.16,5.94-2.72,11.8-4.72,17.51,0,0,.05,.01,.06,0,3.71-10.33,5.93-21.21,6.82-32.14s.5-21.93-1.98-32.56c-1.56-6.69-3.9-13.3-3.67-20.26h-.01Z"/>
            <path class="cls-1"
                  d="M326.88,24.96c-2.51,7.68-4.15,15.61-5.32,23.59-1.04,7.11-1.82,14.27-2.03,21.45-.21,6.8,.04,13.62,.76,20.38s1.94,13.55,3.77,20.13,4.04,12.43,7.17,18.15c.38,.69,.78,1.36,1.19,2.03,0,0,.04,0,.04,0-3.23-5.72-5.77-11.78-7.67-18.07s-3.29-13.25-4.13-20.01-1.18-13.49-1.09-20.25,.76-14.01,1.67-20.98c1.04-7.96,2.51-15.87,4.76-23.58,.28-.95,.57-1.9,.87-2.85h0Z"/>
            <path class="cls-1"
                  d="M66.05,32.68c-.63,6.67-1.39,13.31-2.48,19.92s-2.52,13.45-4.22,20.07c-3.38,13.18-7.9,26.14-14.1,38.26-.8,1.56-1.6,3.09-2.24,4.72-.6,1.51-1.12,3.06-1.71,4.57-1.19,3.09-2.8,5.82-5.4,7.93-.02,.02,.05,.02,.06,.01,2.28-1.82,3.88-4.14,5.01-6.81s1.96-5.56,3.27-8.21c1.44-2.93,2.96-5.82,4.3-8.8s2.71-6.26,3.92-9.45c4.89-12.84,8.37-26.21,10.75-39.74,1.31-7.43,2.35-14.95,2.85-22.48h0Z"/>
            <path class="cls-1"
                  d="M66.04,32.68c-2.12,8.31-4.22,16.67-7.33,24.68-2.89,7.47-6.75,14.58-12.12,20.57-3.23,3.61-6.94,6.74-10.96,9.44,0,0,.05,.01,.06,0,6.98-4.59,12.84-10.64,17.19-17.77s7.07-14.73,9.37-22.55c1.4-4.76,2.61-9.56,3.82-14.37,0,0-.03,0-.03,0h0Z"/>
            <path class="cls-1"
                  d="M60.15,31.41c-.46,4.24-.81,8.49-1.32,12.73-.54,4.54-1.29,9.04-2.26,13.51-1.1,5.08-2.48,10.1-4.33,14.96-1.74,4.57-3.94,8.96-6.47,13.13-2.83,4.66-6.1,9.06-9.73,13.13,0,0,.04,.01,.05,0,6.48-7.14,11.82-15.43,15.5-24.35s5.89-18.95,7.12-28.7c.6-4.79,1.09-9.61,1.46-14.42h0Z"/>
            <path class="cls-1"
                  d="M32.06,24.94c-1.64-.16-3.14,.73-4.02,2.09-1.17,1.81-.84,3.75,.56,5.31,.78,.87,1.73,1.62,2.35,2.62,.75,1.2,.96,2.63,1.02,4.02,.14,3.11,.06,6.24,.08,9.35,.05,6.29,.09,12.58,.16,18.88,.03,3.06,.12,6.15,.82,9.14,.65,2.76,1.8,5.37,2.26,8.18,1.63,9.97-3.55,19.44-6.77,28.55-1.65,4.68-2.96,9.55-2.87,14.55,.11,5.93,2,11.63,3.84,17.21,1.55,4.71,3.09,9.45,3.8,14.37,.76,5.27,.44,10.6-1.39,15.63-.49,1.34-1.12,2.63-1.82,3.88-.02,.04,.14,.05,.16,.01,2.85-4.49,4.09-9.71,3.96-15-.12-4.65-1.2-9.21-2.54-13.65-1.67-5.52-3.82-10.92-4.91-16.6-1-5.25-.72-10.41,.64-15.56,2.46-9.31,7.7-18.04,8.36-27.78,.16-2.38,0-4.78-.54-7.11-.67-2.84-1.84-5.51-2.32-8.4s-.48-5.94-.51-8.91-.06-6.2-.09-9.3-.06-6.2-.09-9.3,.12-5.96-.17-8.9c-.12-1.21-.42-2.43-1.12-3.44-.65-.94-1.57-1.66-2.32-2.51s-1.3-1.84-1.24-3.01c.05-1.03,.51-2.04,1.19-2.81,.89-1,2.14-1.6,3.5-1.48,0,0,0,0,0,0h0Z"/>
            <path class="cls-1"
                  d="M33.18,229.27c-1.78,2.25-1.12,5.59-.09,8.02,.54,1.26,1.26,2.47,2.2,3.47,1.22,1.29,2.91,1.88,4.27,2.99,2.93,2.39,2.37,6.53,3.19,9.85,.71,2.85,2.67,4.98,4.83,6.86s4.76,3.73,6.38,6.26c.94,1.47,1.17,2.98,1.54,4.64,.32,1.49,1.12,2.54,2.44,3.28,1.43,.8,3.06,1.2,4.41,2.16s2.09,2.33,2.44,3.89c.69,3.01,.12,6.15,.46,9.2,.2,1.76,.72,3.41,1.81,4.83,1.35,1.76,2.98,3.17,4.03,5.16,2.02,3.82,2.21,8.44,.55,12.43,0,.02,0,.02,.01,.03,4.06,2.31,5.85,7.28,4.36,11.67-.33,.98-.69,2-.17,2.97,.37,.69,1.07,1.12,1.75,1.45,1.71,.84,3.88,1.24,4.85,3.07,1.18,2.22,.43,5.15,.53,7.54,.13,3.02,.79,5.98,1.55,8.89s1.55,5.73,2.32,8.6c.39,1.45,.78,2.89,1.18,4.34,.3,1.09,.48,2.42,1.21,3.34,1.38,1.74,3.75-.08,5.04-.98,2.31-1.6,4.22-3.68,5.69-6.07,.04-.06-.17-.05-.2-.04-2.89,.76-4.55,3.44-5.36,6.16-1.03,3.42-.9,7.58-3.39,10.39-1.33,1.5-3.99,3.09-6.02,1.99-.71-.38-.58-1.1-.14-1.7,.46-.63,1.25-.97,2-1.09,1.83-.28,3.3,.86,3.61,2.66,.29,1.7-.44,3.45-1.47,4.77-2.24,2.84-5.99,4-8.46,6.64-2.05,2.18-3.29,4.97-3.93,7.87-1.43,6.49-.12,13.04,.75,19.5,.99,7.4,1.4,15.93-3.93,21.88-.02,.02,.12,.04,.15,0,6.88-7.35,4.49-18.3,3.25-27.24-.63-4.53-.96-9.22-.05-13.74,.45-2.21,1.22-4.37,2.45-6.27,1.37-2.12,3.26-3.64,5.37-5s4.21-2.59,5.39-4.78c.89-1.65,1.29-4.07-.17-5.55-.85-.87-2.23-1.03-3.36-.77-.56,.13-1.12,.36-1.56,.75-.37,.34-1.01,1.29-.67,1.84,.23,.38,1.25,.54,1.65,.59,.78,.1,1.58,0,2.32-.25,2.03-.67,3.57-2.27,4.42-4.2,1.93-4.38,1.06-10.61,5.51-13.61,.31-.21,1.4-.95,1.32-.41-.06,.45-.78,1.15-1.06,1.5-.89,1.14-1.9,2.18-3.02,3.1-.95,.78-1.97,1.49-3.05,2.08s-2.22,.82-2.94-.3c-.37-.57-.53-1.26-.71-1.91-1.62-5.95-3.51-11.91-4.73-17.96-.58-2.92-.68-5.72-.58-8.69,.06-2.07-.15-4.21-2.03-5.43-1.48-.97-3.64-1.18-4.85-2.54-.81-.91-.66-1.99-.3-3.07,.37-1.15,.68-2.24,.69-3.46,0-2.06-.67-4.12-1.86-5.8-.6-.84-1.32-1.59-2.16-2.2-.43-.32-.87-.41-.78-1.02,.08-.55,.39-1.11,.52-1.66,1.15-4.66-.18-9.7-3.35-13.26-1.73-1.94-3.24-3.62-3.7-6.27-.36-2.09-.23-4.23-.26-6.34-.02-1.86-.13-3.83-1.01-5.51-1.01-1.93-2.84-2.72-4.75-3.53-.96-.41-1.96-.85-2.72-1.6-1-1-1.16-2.34-1.41-3.66-.36-1.88-1.25-3.49-2.51-4.92-2.62-2.96-6.25-4.94-8.52-8.22-1.32-1.89-1.72-4.04-2.01-6.28-.26-2.07-.48-4.33-1.84-6.01-1.48-1.84-3.96-2.43-5.49-4.23-1.36-1.6-2.29-3.63-2.7-5.68-.37-1.84-.35-3.91,.86-5.45h0Z"/>
            <path class="cls-1" d="M91.15,346.52s.02-.01,0-.01-.02,.01,0,.01h0Z"/>
            <path class="cls-1"
                  d="M67.03,32.97c0,2.06,2.18,3.59,3.83,4.39,.85,.41,1.77,.72,2.71,.78,1.21,.08,2.46-.29,3.62-.57,1.81-.44,3.68-.91,5.54-.51,1.35,.29,2.59,.93,3.77,1.62,1.98,1.16,3.98,2.68,6.33,2.97,1,.12,1.96-.04,2.9-.38,.69-.25,1.37-.57,2.08-.76,.99-.26,1.92-.17,2.85,.23,1.76,.75,3.43,2.58,5.47,2.45,1.23-.08,1.92-1.13,3.04-1.48,1.28-.4,2.43,.46,3.38,1.22,1.56,1.25,3.08,2.66,5.23,2.18,1.82-.41,3.35-1.6,5.3-1.32,1.72,.24,3.2,1.25,4.86,1.69s4.57,.08,4.86-2.1c0,0-.01-.01-.02-.02-1.87-.77-3.98-.59-5.7,.47-.02,.01,0,.02,.01,.03,3.87,1.66,8.01,2.65,12.22,2.89,1.57,.09,3.34,.25,4.86-.27,.7-.24,1.24-.66,1.64-1.28,.24-.37,.46-.89,.84-1.13,.3-.19,1.19-.28,1.53-.21,.15,.03,.28,.08,.42,.13,.31,.12,.61,.28,.9,.44,2.03,1.12,3.82,2.62,5.3,4.41,.01,.02,.09,.02,.09,0,.37-2.15,3.02-2.57,4.81-2.29,2.05,.32,3.93,1.52,6.06,1.4,.88-.05,1.61-.4,2.38-.82,.81-.45,1.9-.92,2.7-.14,.15,.14,.35,.41,.33,.63-.06,.52-.74,.63-1.16,.75-.99,.28-2.18,.35-2.97-.41-.34-.33-.6-.79-.6-1.27-.02-1.57,2-1.47,3.07-1.3,5.01,.79,10.07,1.07,15.14,.71,2.26-.16,4.49-.54,6.74-.78,2.04-.22,4.32-.32,6.19,.65,4.48,2.3,2.09,8.69,.93,12.26-1.41,4.34-2.84,8.62-2.16,13.24,1.26,8.57,7.44,15.63,8,24.38,.32,4.96-1.01,9.83-2.53,14.5-.76,2.34-1.59,4.66-2.33,7.01-.34,1.07-.68,2.14-.96,3.22-.25,.97,.03,1.84,.56,2.66,.57,.88,1.35,1.6,2.14,2.28,.03,.02,.13,0,.11-.02-.81-.7-1.6-1.46-2.17-2.37-.63-1.02-.66-1.91-.35-3.03,.68-2.44,1.5-4.84,2.31-7.25,1.53-4.54,3.06-9.17,3.34-13.99,.26-4.46-.88-8.64-2.59-12.72s-3.76-7.88-4.89-12.1c-.54-2.03-.84-4.13-.72-6.23,.13-2.49,.82-4.91,1.58-7.28,.7-2.2,1.48-4.38,1.99-6.63,.45-2,.81-4.33-.28-6.19-1.76-2.99-5.89-2.73-8.85-2.36-2.55,.32-5.07,.68-7.64,.8-2.7,.13-5.41,.08-8.1-.13-1.37-.11-2.73-.26-4.09-.46-.92-.13-1.87-.38-2.81-.31-.55,.04-1.12,.2-1.46,.67-.46,.64-.2,1.45,.3,1.98,.47,.49,1.09,.7,1.76,.71,.48,0,.95-.09,1.4-.21,.27-.08,.95-.17,1.12-.38,.46-.56-.45-1.27-.89-1.42-.59-.21-1.18-.02-1.73,.25-.47,.23-.91,.53-1.39,.74-.91,.39-1.91,.4-2.87,.22-1.22-.23-2.38-.7-3.57-1.05-1.32-.39-2.81-.46-4.12,.05-.58,.23-1.14,.59-1.47,1.13-.06,.1-.3,.74-.35,.75-.17,.03-1.03-1.11-1.19-1.27-1.41-1.39-3.22-2.89-5.13-3.52-.56-.18-1.21-.26-1.74,.06-.81,.48-1,1.55-1.78,2.09-1.04,.72-2.39,.73-3.6,.73-1.34,0-2.68-.07-4.01-.23-2.62-.3-5.21-.88-7.7-1.75-.59-.21-1.18-.43-1.76-.67-.17-.07-.54-.13-.5-.38,.03-.16,1.02-.47,1.17-.52,.71-.23,1.45-.32,2.2-.28,.39,.02,1.83,.09,1.93,.6,.07,.36-.37,.9-.6,1.13-.36,.35-.82,.59-1.3,.73-1.1,.34-2.26,.23-3.33-.15-1.8-.63-3.57-1.76-5.56-1.53-2.25,.27-4.22,2.18-6.55,1.1-1.47-.68-2.51-1.99-3.9-2.78-1.09-.62-2.16-.61-3.21,.1-.45,.31-.86,.66-1.37,.86-.65,.25-1.37,.17-2.02-.06-.82-.3-1.56-.79-2.3-1.25-1.25-.77-2.59-1.55-4.11-1.34-.96,.13-1.85,.58-2.75,.9-1.25,.45-2.51,.52-3.79,.16-3.44-.98-6.02-4-9.65-4.47-2.17-.28-4.29,.48-6.39,.92-1.22,.26-2.34,.37-3.55,.02-.87-.25-1.71-.65-2.47-1.14-1.28-.82-2.74-2.12-2.76-3.76,0,0-.03,0-.03,0h0Z"/>
            <path class="cls-1"
                  d="M126.34,45.35c1.32,4.65,1.42,9.51,1.34,14.31s-.29,9.94-.58,14.9c-.59,9.95-1.57,19.87-2.95,29.74-.78,5.58-1.7,11.14-2.69,16.69,0,0,.04,0,.04,0,1.9-9.78,3.28-19.67,4.32-29.59s1.66-19.86,1.89-29.83c.12-5.44,.19-10.96-1.34-16.24h-.01Z"/>
            <path class="cls-1"
                  d="M60.29,52.94c8.29,8.89,16.56,17.8,24.82,26.71,8.27,8.92,16.53,17.86,24.82,26.77,4.67,5.03,9.32,10.09,14.06,15.06,.02,.02,.09,0,.08-.01-8.2-8.97-16.56-17.8-24.84-26.71s-16.57-17.85-24.87-26.76c-4.68-5.03-9.37-10.05-14.06-15.06h-.01Z"/>
            <path class="cls-1"
                  d="M49.41,102.24c11.12,1.49,22.24,2.99,33.33,4.7,5.54,.85,11.08,1.76,16.6,2.75,2.46,.44,5.01,.75,7.42,1.44,1.77,.5,3.47,1.24,5.12,2.06,2.04,1.02,4,2.19,5.83,3.55,1.54,1.14,3.09,2.44,4.13,4.07,0,0,.04,0,.04,0-.84-1.36-2.05-2.48-3.29-3.47-1.6-1.28-3.34-2.39-5.14-3.38-1.66-.91-3.39-1.73-5.17-2.38-1.91-.69-3.9-1-5.89-1.36-11.25-2.07-22.57-3.78-33.9-5.38-6.35-.89-12.71-1.74-19.06-2.59,0,0-.02,0-.01,0h0Z"/>
            <path class="cls-1"
                  d="M35.65,128.7c11.84-2.08,23.76-3.76,35.73-4.95s23.45-1.86,35.21-2.17c6.89-.18,13.78-.23,20.67-.18,.03,0,.07-.01,.02-.02-12.07-.1-24.15,.13-36.21,.82s-23.39,1.76-35.02,3.32c-6.83,.91-13.63,1.98-20.41,3.18-.01,0,0,0,.01,0h0Z"/>
            <path class="cls-1"
                  d="M32.79,154.65c11.54-5.01,23.19-9.75,34.93-14.26s23.74-8.85,35.72-12.97c6.67-2.29,13.36-4.52,20.06-6.72,.01,0-.02,0-.02,0-12.02,3.87-23.96,7.97-35.84,12.25s-23.68,8.77-35.38,13.51c-6.53,2.65-13.02,5.37-19.48,8.19h0Z"/>
            <path class="cls-1"
                  d="M121.46,121.46c-5.29,6.41-11.43,12.04-17.64,17.54-5.71,5.05-11.41,10.11-16.98,15.32s-11.17,10.64-16.61,16.1-11.12,11.35-16.51,17.2c-5.05,5.48-9.99,11.07-14.73,16.83-.55,.67-1.09,1.34-1.64,2.02,0,0,.03,.01,.04,0,4.66-5.7,9.49-11.26,14.45-16.71,5.33-5.86,10.8-11.59,16.36-17.23s11.19-11.13,16.94-16.55c5.49-5.18,11.1-10.24,16.76-15.24,6.11-5.39,12.22-10.82,17.6-16.95,.67-.77,1.34-1.55,1.99-2.33,0,0-.02,0-.02,0h0Z"/>
            <path class="cls-1"
                  d="M121.72,121.48c-3.82,10.14-7.47,20.35-11.02,30.58-3.91,11.27-7.69,22.58-11.39,33.92s-7.58,23.57-11.24,35.4-7.02,22.98-10.41,34.5c-3.1,10.56-6.14,21.14-9.05,31.76-.33,1.19-.65,2.39-.98,3.58,0,0,.04,.01,.05,0,2.88-10.44,5.85-20.86,8.88-31.26,3.34-11.45,6.77-22.87,10.27-34.27s7.36-23.64,11.17-35.42,7.47-22.83,11.37-34.2c3.57-10.42,7.24-20.8,11.08-31.12,.43-1.16,.87-2.32,1.3-3.48,0,0-.02,0-.03,0h0Z"/>
            <path class="cls-1"
                  d="M123.56,121.48c-1.28,21.16-3.43,42.25-5.95,63.3-2.21,18.46-5,36.84-7.22,55.3-1.52,12.64-2.68,25.33-3.85,38-1.37,14.88-2.68,29.77-4.05,44.65-1.13,12.21-2.24,24.43-3.76,36.6-.13,1.08-.27,2.17-.42,3.25,0,0,.03,0,.03,0,1.58-11.53,2.67-23.13,3.77-34.72,1.41-14.82,2.71-29.64,4.06-44.47,1.2-13.21,2.4-26.43,3.9-39.61,1.95-17.15,4.58-34.23,6.7-51.36,2.6-21.02,4.87-42.09,6.33-63.23,.18-2.57,.34-5.14,.49-7.71,0,0-.02,0-.02,0h0Z"/>
            <path class="cls-1"
                  d="M126.2,122.38c2.83,9.81,5.1,19.77,7.18,29.76s4.11,20.92,6.12,31.38,4.01,20.49,6.44,30.64,5.32,19.98,8.6,29.79c3.41,10.2,7.14,20.29,11.12,30.28,.47,1.17,.93,2.34,1.41,3.51,0,.02,.07,0,.06,0-4-10.04-7.82-20.16-11.32-30.39s-6.43-19.75-8.94-29.82-4.6-20.25-6.59-30.44-3.95-20.78-6.06-31.15-4.26-20.13-6.99-30.05c-.32-1.17-.65-2.34-.99-3.5,0,0-.03,0-.03,0h0Z"/>
            <path class="cls-1"
                  d="M124.36,121.37c9.36,4.96,18.73,9.92,28.1,14.87s18.73,9.91,28.09,14.87,18.39,9.78,27.66,14.51,18.49,9.19,28,13.22c4.26,1.81,8.55,3.58,12.96,5.01,1.37,.44,2.75,.88,4.03,1.55s2.41,1.67,3.33,2.84c.57,.72,1.08,1.5,1.55,2.3,.02,.03,.15,0,.14-.02-.82-1.47-1.79-2.87-3.09-3.96-1.01-.85-2.18-1.45-3.41-1.92-1.54-.59-3.13-1.04-4.69-1.58-2.25-.78-4.46-1.69-6.66-2.58-9.65-3.92-19.08-8.36-28.38-13.04s-18.47-9.55-27.66-14.41c-9.44-4.99-18.88-9.97-28.32-14.96s-18.8-9.93-28.2-14.89c-1.14-.6-2.29-1.21-3.43-1.81,0,0-.03,0-.03,0h0Z"/>
            <path class="cls-1"
                  d="M122.53,121.33c14.76-.46,29.52,.24,44.24,1.31,13.55,.99,27.1,2.16,40.64,3.33,12.83,1.11,25.65,2.26,38.48,3.36s26.28,2.2,39.43,3.13c12.44,.87,24.88,1.62,37.34,2.06,1.51,.05,3.03,.1,4.54,.15,.02,0,.06-.01,.02-.01-12.68-.41-25.34-1.11-38-1.96s-26.27-1.95-39.39-3.06c-12.96-1.1-25.91-2.26-38.87-3.38s-26.85-2.31-40.29-3.34c-14.19-1.08-28.42-1.91-42.66-1.71-1.83,.02-3.66,.07-5.49,.13-.02,0-.03,0,0,0h0Z"/>
            <path class="cls-1"
                  d="M203.04,49.73c-4.22,5.63-8.65,11.1-13.29,16.39s-9.34,10.24-14.31,15.06-10.08,9.41-15.4,13.8-10.92,8.67-16.62,12.67-11.69,7.87-17.73,11.49c-.76,.45-1.51,.9-2.27,1.35,0,0,.03,0,.04,0,6.11-3.56,12.1-7.34,17.93-11.35s11.29-8.09,16.69-12.47,10.54-8.89,15.53-13.65,9.87-9.79,14.5-14.97,9.13-10.65,13.38-16.23c.53-.7,1.06-1.4,1.59-2.1,0,0-.02,0-.03,0h0Z"/>
            <path class="cls-1"
                  d="M265.6,45.26c-7.92,7.57-16.21,14.74-24.91,21.4-8.29,6.35-16.95,12.21-25.95,17.52s-18.08,9.94-27.53,14.07-19.47,7.83-29.49,10.94-21.09,5.93-31.8,8.18c-1.36,.29-2.72,.57-4.09,.84-.03,0,.01,.02,.03,.02,10.86-2.15,21.64-4.74,32.26-7.89,10.03-2.98,19.92-6.46,29.57-10.52s18.66-8.49,27.57-13.56,17.81-10.89,26.19-17.11,17.1-13.52,25.07-20.96c1.04-.97,2.07-1.95,3.1-2.93h-.01Z"/>
            <path class="cls-1"
                  d="M411.31,37.86c-10.15,7.07-21.22,12.67-32.71,17.21-11.6,4.58-23.58,8.1-35.66,11.16-12.68,3.21-25.46,6.05-38.25,8.77s-26.46,5.3-39.87,6.78c-13.62,1.5-27.37,1.93-41.04,.79-1.81-.15-3.62-.33-5.43-.53,0,0-.04,0-.02,.01,13.36,1.52,26.83,1.52,40.21,.38s26.82-3.42,40.06-6.11,26.37-5.65,39.47-8.84c12.18-2.96,24.28-6.31,36.04-10.65s22.94-9.57,33.34-16.34c1.31-.85,2.59-1.72,3.87-2.62,0,0-.02,0-.02,0h0Z"/>
            <path class="cls-1"
                  d="M129.68,45.69c3.64,7.12,10.74,11.07,17.77,14.22,8.49,3.8,17.9,5.26,27.1,6.08,8.71,.78,17.48,.81,26.2,.27s17.9-1.73,26.71-3.51,16.93-4,25.09-7c.98-.36,1.95-.73,2.92-1.11,0,0-.03,0-.04,0-8.04,3.12-16.34,5.54-24.76,7.4s-17.5,3.23-26.37,3.95-17.77,.85-26.64,.24-18.38-1.83-26.97-5.01c-3.88-1.44-7.72-3.29-11.25-5.46-3.17-1.95-6.07-4.36-8.21-7.43-.58-.84-1.1-1.72-1.57-2.62h-.01Z"/>
            <path class="cls-1"
                  d="M304.89,152.19c-12.86,3.25-25.44,7.63-37.59,12.96s-23.14,11.31-34.11,18-21.27,13.98-30.8,22.4c-8.88,7.83-16.91,16.6-23.5,26.45s-11.42,20.07-14.7,31.11c-.42,1.42-.81,2.84-1.18,4.27,0,0,.05,.01,.05,0,2.94-11.25,7.57-22.02,13.71-31.91s13.82-18.91,22.38-26.89c9.24-8.6,19.42-16.13,30.06-22.89s22-13.1,33.58-18.47,24.64-10.26,37.48-13.8c1.54-.42,3.08-.83,4.63-1.22,.02,0,0-.01-.02-.01h0Z"/>
            <path class="cls-1"
                  d="M112.56,108.98c1.37,.03,2.74,.06,4.1,.1,1.14,.03,2.3,.07,3.43-.08,1.83-.24,3.32-.97,4.01-2.77,0-.01-.04-.01-.04,0-.32,.73-.72,1.4-1.38,1.87-.92,.65-2.13,.86-3.22,.94-2.27,.18-4.6-.02-6.88-.07-.02,0-.04,.01-.01,.02h0Z"/>
            <path class="cls-1"
                  d="M112.56,108.97c.13,.34-.06,.67-.28,.92-.26,.29-.57,.53-.89,.76-.29,.21-.5,.46-.73,.73s-.55,.65-.91,.38c0,0-.02,0-.02,0,.42,.33,.83-.21,1.08-.5,.21-.25,.43-.46,.7-.65,.29-.21,.58-.43,.81-.71,.22-.25,.41-.58,.28-.92,0,0-.03,0-.03,0h0Z"/>
            <path class="cls-1"
                  d="M109.47,111.68c.8,1.41,1.65,2.84,2.09,4.42,.37,1.34,.38,2.71,.16,4.07-.34,2.17-1.33,5.39-3.88,5.79-.04,0,0,.02,.02,.02,2.41-.32,3.43-3.14,3.84-5.2,.3-1.48,.36-3.02-.02-4.49-.43-1.65-1.33-3.14-2.17-4.61,0,0-.04,0-.04,0h0Z"/>
            <path class="cls-1"
                  d="M109.56,125.28c.52,.28,1.08,.58,1.41,1.09,.25,.39,.39,.85,.62,1.25,.45,.79,1.11,1.47,1.3,2.39s-.26,2-1.26,2.12c-.03,0,0,.01,.01,.01,.73-.07,1.24-.7,1.35-1.4,.16-1.06-.58-1.93-1.12-2.75-.33-.5-.52-1.06-.83-1.57-.33-.54-.92-.86-1.46-1.15,0,0-.03,0-.02,0h0Z"/>
            <path class="cls-1"
                  d="M111.33,132.21c1.19-.25,2.54,.06,3.62,.57,.86,.41,1.77,1.07,1.83,2.1,0,0,.03,0,.04,0,.05-1.17-1.28-1.92-2.21-2.28-1.02-.4-2.22-.63-3.3-.4-.01,0,.02,0,.02,0h0Z"/>
            <path class="cls-1"
                  d="M116.64,134.93c1.68-1.45,4.15-.88,6.06-.27,0,0,.03,0,.03,0-1.86-.68-4.46-1.15-6.1,.28h.02Z"/>
            <path class="cls-1"
                  d="M129.65,134.49c-.49-.23-1.07-.21-1.59-.14-.74,.09-1.47,.32-2.16,.59-.77,.31-1.51,.69-2.19,1.16-.51,.36-1.05,.8-1.3,1.38,0,0,.03,0,.04,0,.55-1.12,1.93-1.84,3.01-2.33,.69-.31,1.42-.57,2.16-.72,.64-.13,1.37-.22,1.98,.06,.01,0,.06,0,.05,0h0Z"/>
            <path class="cls-1"
                  d="M140.85,130.1c-2.25-.06-4.45,1.12-6.2,2.44s-3.76,3.32-4.23,5.61c0,0,.03,0,.04,0,.58-2.17,2.18-3.96,3.9-5.33s4.12-2.77,6.49-2.7c.01,0,.03-.01,0-.01h0Z"/>
            <path class="cls-1"
                  d="M144.06,121.33c-1.37,.97-2.61,2.19-3.2,3.79s-.47,3.33,0,4.92c0,.01,.05,0,.05,0-.4-1.62-.58-3.31,0-4.91s1.81-2.82,3.17-3.79c0,0-.02,0-.02,0h0Z"/>
            <path class="cls-1"
                  d="M141.18,113.85c-.32,1.58-.93,3.2-.87,4.83,.06,1.55,1.24,3.12,2.81,3.35,0,0,.04,0,.02,0-1.69-.25-2.83-2-2.79-3.64,.04-1.54,.56-3.03,.86-4.54,0,0-.03,0-.03,0h0Z"/>
            <path class="cls-1"
                  d="M140.06,110.06c-.13,1.28,.04,2.92,1.11,3.79,0,0,.03,0,.02,0-1.05-.9-1.23-2.49-1.11-3.79,0,0-.03,0-.03,0h0Z"/>
            <path class="cls-1"
                  d="M140.35,112.72c-1.51,.94-2.81,2.37-3.75,3.87-.45,.71-.88,1.55-1.06,2.38s.19,1.55,.68,2.21c0,0,.03,0,.03,0-.45-.66-.82-1.35-.66-2.17s.57-1.63,1-2.33c.93-1.54,2.26-3.01,3.79-3.97,0,0-.02,0-.02,0h0Z"/>
            <path class="cls-1"
                  d="M124.4,104.07c1.46,3.03,4.59,4.72,7.72,5.57,1.48,.4,3.03,.67,4.57,.74,1.36,.06,2.81-.04,4-.76,0,0-.02,0-.02,0-1.66,.97-3.72,.85-5.56,.6-1.42-.19-2.83-.5-4.18-.97-2.69-.93-5.22-2.55-6.5-5.18,0,0-.02,0-.02,0h0Z"/>
            <path class="cls-1"
                  d="M108.1,104.29c.25,1.28,.49,2.72,.05,3.98-.36,1.04-1.09,2.05-2.03,2.64,0,0,.02,0,.03,0,.95-.57,1.69-1.6,2.04-2.64,.43-1.27,.18-2.71-.08-3.98,0,0-.02,0-.01,0h0Z"/>
            <path class="cls-1"
                  d="M106.13,110.91c1.51,2.12,1.13,4.53,.4,6.86-.27,.85-.58,1.71-1.13,2.43-.61,.81-1.47,1.32-2.4,1.69-.01,0,.02,0,.02,0,.84-.33,1.64-.77,2.24-1.46s.94-1.53,1.22-2.38c.8-2.41,1.25-4.96-.34-7.15h-.02Z"/>
            <path class="cls-1"
                  d="M102.23,121.82c.72,1.02,.83,2.4,.6,3.6s-.9,2.52-2.15,2.95c-.02,0,0,.01,.02,.01,1.19-.4,1.85-1.57,2.12-2.73,.29-1.27,.2-2.75-.58-3.83h-.01Z"/>
            <path class="cls-1"
                  d="M98.82,128.99c2.16,1.06,4.32,3.12,4.4,5.64,.04,1.13-.04,2.27-.26,3.37-.2,1.04-.5,2.27-1.36,2.98-.01,.01,.03,.01,.04,0,.77-.63,1.09-1.68,1.3-2.61,.28-1.22,.37-2.5,.33-3.75-.1-2.51-2.26-4.62-4.44-5.64,0,0-.03,0-.02,0h0Z"/>
            <path class="cls-1"
                  d="M100.21,142.29c4.45-1.82,9.34-1.87,13.49,.71,0,0,.03,0,.03,0-4.02-2.71-9.2-2.5-13.54-.71,0,0,.01,0,.02,0h0Z"/>
            <path class="cls-1"
                  d="M107.15,102.99c3.36,.74,6.64,2.5,10.16,2.21,2.74-.22,5.87-1.5,7.33-3.95,0,0-.03,0-.03,0-1.56,2.41-4.52,3.72-7.31,3.94-3.51,.28-6.78-1.48-10.13-2.21,0,0-.02,0-.01,0h0Z"/>
            <path class="cls-1"
                  d="M124.82,99.48c2.56,2.89,6.03,4.99,9.76,6.01,3.03,.83,6.04,.67,9.12,.23,1.34-.19,3.07-.35,4.17-1.22,0,0-.03,0-.03,0-1.03,.8-2.61,.97-3.85,1.16-1.34,.21-2.71,.38-4.07,.44-3.74,.18-7.5-1.01-10.66-2.96-1.64-1.01-3.13-2.24-4.42-3.66h-.01Z"/>
            <path class="cls-1"
                  d="M146.9,105.21c-.48,1.13-.55,2.45-.47,3.65,.08,1.11,.29,2.44,1.12,3.25,0,0,.03,0,.03,0-.83-.85-1.05-2.2-1.12-3.34s0-2.46,.45-3.56c0,0-.02,0-.02,0h0Z"/>
            <path class="cls-1"
                  d="M147.56,112.11c-.53,1.95-.28,4.2,0,6.18,.12,.86,.33,1.7,.96,2.34s1.44,.89,2.27,1.02c0,0,.03,0,.01,0-.95-.15-1.89-.52-2.49-1.31-.55-.73-.66-1.64-.77-2.52-.22-1.84-.44-3.88,.04-5.7,0,0-.02,0-.02,0h0Z"/>
            <path class="cls-1"
                  d="M150.79,121.64c-2.92,3.64-3.93,8.9-1.36,13.02,0,0,.04,0,.03,0-2.4-4.23-1.62-9.27,1.35-13.01,0,0-.02,0-.02,0h0Z"/>
            <path class="cls-1"
                  d="M149.87,134.85c-2.78-.06-5.51,.93-7.89,2.3-2.75,1.58-5.24,3.74-7.1,6.31-.93,1.29-1.73,2.72-2.15,4.27,0,0,.04,0,.04,0,1.11-3.52,3.64-6.47,6.52-8.72s6.72-4.23,10.57-4.15c.01,0,.03,0,0,0h0Z"/>
            <path class="cls-1"
                  d="M122.28,140.05c2-.6,4.17-.63,6.06,.34,1.63,.84,2.75,2.3,3.56,3.91,0,0,.02,0,.02,0-.84-1.85-2.28-3.46-4.2-4.21-1.75-.68-3.67-.58-5.45-.05,0,0,0,0,.01,0h0Z"/>
            <path class="cls-1"
                  d="M113.84,142.88c1.06-1.43,2.54-2.5,4.12-3.3,.81-.41,1.66-.78,2.53-1.02,.77-.21,1.26-.11,1.58,.52,.14,.28,.28,.65,.18,.96,0,0,.02,0,.02,0,.18-.55-.26-1.46-.84-1.58-.83-.17-1.85,.36-2.58,.68-1.92,.83-3.77,2.04-5.03,3.74h.01Z"/>
            <path class="cls-1"
                  d="M105.07,100.41c.71,3.7-.95,7.57-4.02,9.72-.01,0,.02,.01,.03,0,3.11-2.1,4.74-6.04,4.01-9.73,0,0-.02,0-.02,0h0Z"/>
            <path class="cls-1"
                  d="M101.22,110.06c1.93,4.53-.55,9.59-4.59,11.98,0,0,.03,0,.04,0,4.05-2.34,6.58-7.5,4.56-11.98h0Z"/>
            <path class="cls-1"
                  d="M95.34,122.05c1.52,.48,2.35,2.52,2.49,3.97,.07,.78-.11,1.59-.45,2.29s-.92,1.19-1.42,1.74c0,0,.03,0,.03,0,.54-.57,1.16-1.12,1.49-1.86s.49-1.56,.38-2.37c-.19-1.41-1.01-3.32-2.49-3.79,0,0-.04,0-.02,0h0Z"/>
            <path class="cls-1"
                  d="M90.59,131.95c1.47-.99,3.67,.3,4.86,1.23s1.99,2.34,2.42,3.84c.89,3.17,.11,6.73-2.11,9.18,0,0,.03,0,.03,0,2.03-2.19,2.87-5.3,2.35-8.23-.24-1.35-.77-2.76-1.64-3.84-.77-.94-1.87-1.67-2.98-2.13-.91-.37-2.06-.66-2.94-.07,0,0,.02,0,.02,0h0Z"/>
            <path class="cls-1"
                  d="M93.57,148.16c3.29-1,6.8-1.22,10.21-.87,1.7,.17,3.4,.5,5.04,1,.89,.27,3.05,1.51,2.2,2.74,0,0,.03,.01,.04,0,.72-.99-.78-2.23-1.59-2.57-1.56-.64-3.37-.92-5.03-1.13-3.61-.45-7.37-.25-10.86,.82,0,0,0,0,0,0h0Z"/>
            <path class="cls-1"
                  d="M111.01,150.92c1.73-1.35,3.66-2.42,5.8-2.94s4.32-.45,6.46-.09c4.03,.68,9.02,2.04,10.7,6.21,0,.01,.05,0,.05,0-1.16-3.39-4.89-4.82-8.05-5.65s-6.52-1.26-9.71-.35c-1.94,.56-3.69,1.57-5.27,2.82,0,0,.01,0,.02,0h0Z"/>
            <path class="cls-1"
                  d="M156.08,138.11c-.1-.7-.78-1.12-1.43-1.22-.69-.11-1.39,.23-2.03,.47-2,.74-3.88,1.77-5.64,2.97-3.78,2.56-7.15,5.89-9.63,9.73-1.27,1.97-2.31,4.1-2.88,6.39,0,0,.04,0,.04,0,.99-3.75,3.17-7.14,5.7-10.04,2.67-3.06,5.88-5.74,9.47-7.66,.96-.52,1.95-.98,2.98-1.36,.7-.26,1.5-.63,2.25-.4,.55,.17,1.05,.54,1.13,1.14,0,0,.04,0,.04,0h0Z"/>
            <path class="cls-1"
                  d="M161.91,122.29c-.13-.15-.16-.14-.32-.08-.22,.08-.41,.44-.56,.61-.26,.28-.56,.53-.84,.81-1.15,1.16-2.14,2.48-2.96,3.89-1.62,2.8-2.53,5.97-2.6,9.2,0,0,.03,0,.04,0,.1-2.83,.79-5.61,2.05-8.14,.61-1.22,1.34-2.38,2.19-3.45,.41-.52,.86-1.02,1.32-1.5,.25-.26,.52-.49,.77-.75,.14-.15,.61-.9,.89-.58h.02Z"/>
            <path class="cls-1"
                  d="M160.87,108.11c.05-.31-.24-.52-.48-.67,0,0-.03,0-.03,0-1.44,2.12-1.42,5.01-1.1,7.44,.33,2.57,1.09,5.27,2.62,7.41,0,0,.05,0,.05,0-1.57-2.22-2.34-5.07-2.65-7.74-.15-1.36-.18-2.74,.03-4.09,.1-.62,.25-1.24,.48-1.83,.11-.29,.25-.58,.4-.85,.07-.13,.12-.26,.29-.25,.21,.02,.39,.44,.37,.59,0,0,.03,0,.03,0h0Z"/>
            <path class="cls-1"
                  d="M155.05,99.06c-1.1,.32-.28,1.98,.09,2.58,.64,1.05,1.53,1.94,2.48,2.71,1.71,1.38,3.99,2.69,6.27,2.64,.02,0,.02,0,0,0-2.33,.05-4.68-1.36-6.41-2.8-.86-.72-1.66-1.54-2.26-2.5-.36-.58-1.25-2.29-.15-2.62h-.01Z"/>
            <path class="cls-1"
                  d="M126.75,81.3h-.02c.5,1.32,1.23,2.59,1.92,3.82,1.34,2.38,2.87,4.75,4.84,6.66,1.75,1.69,3.96,2.66,6.24,3.42,2.82,.94,5.75,1.56,8.69,1.97,2.76,.39,5.65,.66,8.43,.28,.03,0,0-.01-.01-.01-2.57,.33-5.22,.11-7.78-.21-2.9-.37-5.79-.96-8.58-1.83-2.35-.73-4.74-1.65-6.6-3.32-1.96-1.76-3.47-4.01-4.8-6.27-.86-1.46-1.61-3-2.36-4.51h.01Z"/>
            <path class="cls-1"
                  d="M126.64,80.87c-1.91,3.2-4.24,6.09-7.06,8.53-1.44,1.25-2.97,2.37-4.55,3.42-1.86,1.23-3.81,2.36-5.92,3.1-2.63,.92-5.4,1.1-8.1,.38,0,0-.05,0-.03,0,4.15,1.15,8.28-.03,11.92-2.12s6.9-4.6,9.64-7.64c1.57-1.74,2.93-3.66,4.11-5.68h-.01Z"/>
            <path class="cls-1"
                  d="M100.51,96.08c-.46,3.53-2.81,6.67-5.74,8.59-3.24,2.13-7.78,3.85-11.59,2.38,0,0-.03,0-.03,0,3.52,1.41,7.55-.04,10.68-1.78,3.4-1.89,6.2-5.26,6.7-9.2,0,0-.03,0-.03,0h0Z"/>
            <path class="cls-1"
                  d="M84.75,107.22c.25-.04,.77,.26,1,.34,.26,.09,.52,.22,.79,.27,0,0,.02,0,.02,0,0,0,1.32,1.17,1.45,1.31,.37,.4,.67,.85,.89,1.34,.48,1.11,.68,2.52,.69,3.72,.02,3.35-2.55,6.23-4.73,8.5,0,0,.03,0,.03,0,2.2-2.25,4.78-5.16,4.75-8.5,0-1.22-.22-2.66-.73-3.77s-1.43-1.87-2.35-2.6c0,0-.02,0-.02,0-.02,.03-1.64-.52-1.78-.61-.02-.01-.06,.01,0,0h0Z"/>
            <path class="cls-1"
                  d="M83.93,122.76c2.54,1.83,2.4,5.41,1.04,7.93-.7,1.3-1.76,2.38-2.85,3.36-1.22,1.1-2.6,2.08-4.2,2.53-.01,0,.02,0,.02,0,1.45-.4,2.72-1.23,3.85-2.19,1.24-1.05,2.46-2.27,3.24-3.71,1.37-2.53,1.47-6.12-1.08-7.94,0,0-.02,0-.02,0h0Z"/>
            <path class="cls-1"
                  d="M74.29,137.82c3.79,.2,7.8,1.91,10.58,4.5,1.36,1.26,2.57,2.84,3.36,4.52s1.03,3.51,.95,5.37c0,0,.04,0,.04,0,.64-7.98-7.59-14.02-14.92-14.39,0,0-.03,0-.01,0h0Z"/>
            <path class="cls-1"
                  d="M85.1,155.95c1.52-1.11,3.21-1.93,5.07-2.28s3.74-.23,5.56,.16c3.33,.71,6.35,2.3,8.65,4.84,1.24,1.36,2.21,2.94,2.9,4.65,0,0,.03,0,.03,0-1.22-3.26-3.64-5.99-6.65-7.71s-6.74-2.54-10.13-2.01c-2,.31-3.83,1.16-5.45,2.36,0,0,.01,0,.02,0h0Z"/>
            <path class="cls-1"
                  d="M103.25,171.45c3.89-3.01,8.22-5.55,12.98-6.87s9.57-1.19,14.16,.31c2.32,.76,4.49,1.88,6.38,3.42,.01,0,.06,0,.05,0-3.46-2.95-8.18-4.34-12.65-4.62-4.72-.29-9.35,.95-13.56,3.04-2.62,1.3-5.07,2.92-7.37,4.72h0Z"/>
            <path class="cls-1"
                  d="M172.5,146.72c-2.97-1.01-6.27-.29-9.2,.53s-5.56,1.91-8.15,3.3c-5.18,2.8-9.82,6.72-13.29,11.49-1.97,2.71-3.54,5.71-4.57,8.9,0,.01,.03,.01,.03,0,3.57-10.83,13.1-19.25,23.71-22.96,1.51-.53,3.05-.96,4.62-1.28,2.25-.47,4.59-.7,6.82,.03,0,0,.03,0,.02,0h0Z"/>
            <path class="cls-1"
                  d="M170.4,122.84c-1.13,.64-2.01,1.52-2.51,2.73-.55,1.33-.73,2.82-.95,4.23-.52,3.37-.72,6.89,.02,10.25,.39,1.8,1.08,3.52,2.13,5.04,0,0,.02,0,.02,0-1.85-2.74-2.5-6.06-2.56-9.32-.03-1.68,.09-3.35,.3-5.01,.19-1.45,.39-2.93,.79-4.34,.45-1.59,1.35-2.75,2.79-3.57,0,0-.02,0-.03,0h0Z"/>
            <path class="cls-1"
                  d="M168.05,122.58c-2.3,2.44-3.69,5.66-4.57,8.85s-1.33,6.8-.83,10.19c0,0,.03,0,.03,0-.48-3.32-.07-6.78,.79-10.01s2.27-6.54,4.6-9.03c0,0-.02,0-.02,0h0Z"/>
            <path class="cls-1"
                  d="M168.41,105.28c-1.12,2.96-1.33,6.27-.88,9.4s1.52,6.08,3.72,8.24c0,0,.03,0,.03,0-2.21-2.23-3.31-5.35-3.73-8.42s-.21-6.31,.88-9.22c0,0-.02,0-.02,0h0Z"/>
            <path class="cls-1"
                  d="M172.95,83.5c-5.09,7.34-7.4,16.43-5.47,25.24,0,0,.03,0,.03,0-1.83-8.85,.35-17.86,5.46-25.24,0,0-.02,0-.02,0h0Z"/>
            <path class="cls-1"
                  d="M125.47,74.7c3.59,4.64,8.73,7.72,14.22,9.61,6.21,2.14,12.79,2.87,19.33,2.56,4.05-.19,8.06-.76,12.04-1.52,.02,0,0,0,0,0-12.73,2.41-26.89,2.67-38.35-4.29-2.77-1.68-5.24-3.8-7.23-6.36h0Z"/>
            <path class="cls-1"
                  d="M127.5,71.67c-2.49,4.32-6.37,7.72-10.6,10.28-4.58,2.77-9.73,4.68-15.02,5.55-2.99,.49-6.04,.63-9.05,.28,0,0-.03,0-.02,0,4.99,.59,10.09-.15,14.86-1.65,5.26-1.66,10.3-4.3,14.44-7.96,2.12-1.88,3.98-4.04,5.39-6.5h0Z"/>
            <path class="cls-1"
                  d="M127.3,71.97c-5.13,3.08-10.6,5.57-16.34,7.27s-11.79,2.64-17.82,2.96c-1.64,.09-3.31,.2-4.94,.02s-3.08-.73-4.51-1.44c0,0-.02,0-.02,0,1.17,.59,2.39,1.09,3.69,1.32,1.19,.22,2.4,.22,3.6,.19,3.17-.08,6.33-.34,9.47-.78,5.96-.83,11.81-2.38,17.37-4.7,3.29-1.37,6.45-3.01,9.51-4.84h0Z"/>
            <path class="cls-1"
                  d="M82.84,77.11c2.54,8.06,2.11,17.15-2.43,24.43-1.3,2.09-2.91,3.96-4.75,5.59,0,0,.02,0,.02,0,6.48-5.69,9.36-14.25,8.64-22.75-.21-2.47-.72-4.91-1.47-7.28h-.01Z"/>
            <path class="cls-1"
                  d="M74.53,105.75c2.64,2.94,4.7,6.27,5.44,10.2,.25,1.31,.73,2.66,.71,4.01-.02,1.42-.91,2.44-1.94,3.31,0,0,.02,0,.03,0,.97-.8,1.87-1.77,1.96-3.08,.1-1.39-.43-2.8-.69-4.15-.77-3.98-2.79-7.31-5.5-10.29h0Z"/>
            <path class="cls-1"
                  d="M75.08,123.57c-.02-.26,.22-.52,.38-.7,.36-.4,.73-.48,.96,.14,.32,.85,.51,1.79,.72,2.67,.45,1.9,.77,3.88,.54,5.83-.21,1.79-.93,3.56-2.26,4.81-1.17,1.09-2.67,1.76-4,2.62,0,0,.03,0,.03,0,1.23-.79,2.59-1.41,3.71-2.35s1.93-2.3,2.32-3.75c.46-1.74,.37-3.58,.07-5.34-.15-.9-.36-1.78-.59-2.66-.11-.42-.23-.84-.35-1.25-.09-.31-.15-.7-.36-.95-.45-.52-1.23,.5-1.19,.94h.01Z"/>
            <path class="cls-1"
                  d="M62.06,142.68c4.21-1.82,8.85,1.39,11.99,3.95,1.53,1.25,2.96,2.64,4.24,4.15s2.44,3.17,3.08,5.06c.25,.74,.51,1.59,.29,2.37s-.91,1.52-1.36,2.22c0,0,.02,0,.03,0,.44-.65,1.01-1.27,1.32-2s.13-1.55-.1-2.3c-.64-2.08-1.92-3.9-3.33-5.53-1.49-1.72-3.15-3.28-4.96-4.66s-3.57-2.53-5.62-3.25c-1.82-.63-3.78-.81-5.59-.03h.01Z"/>
            <path class="cls-1"
                  d="M69.08,139.85c2.2,4.05,4.6,8,6.9,12,1.07,1.86,2.29,3.71,2.94,5.77,.28,.88,.53,1.88,.29,2.79-.23,.86-.85,1.6-1.26,2.38,0,0,.03,.01,.04,0,.41-.73,.98-1.43,1.25-2.23,.29-.89,.07-1.87-.18-2.74-.59-1.99-1.74-3.77-2.77-5.55-2.39-4.14-4.7-8.35-7.2-12.42h-.01Z"/>
            <path class="cls-1"
                  d="M80.16,70.17c1.18,5.68,.62,11.59-.93,17.14-.81,2.9-1.88,5.72-3.2,8.42-1.07,2.19-2.14,4.41-3.5,6.44-1.55,2.31-3.57,4.14-6.07,5.39,0,0,.03,0,.04,0,2.17-1.06,4.01-2.57,5.47-4.5s2.58-4.22,3.68-6.42c2.6-5.19,4.45-10.77,5.01-16.56,.32-3.31,.21-6.66-.48-9.91,0,0-.02,0-.02,0h0Z"/>
            <path class="cls-1"
                  d="M74.65,68.32c7.14,2.32,14.31,4.89,21.72,6.24,6.06,1.1,12.15,1.01,18.18-.27,4.36-.92,8.61-2.33,12.77-3.93,0,0-.03,0-.04,0-6.82,2.58-13.92,4.76-21.26,4.97-6.36,.18-12.58-1.22-18.65-2.99-4.27-1.25-8.49-2.65-12.71-4.02h-.02Z"/>
            <path class="cls-1"
                  d="M66.1,104.5c.31,2.14,.61,4.3,.42,6.47s-.84,4.07-1.85,5.89c-2.04,3.65-5.25,6.65-8.73,8.92,0,0,.02,0,.03,0,3.44-2.22,6.6-5.16,8.65-8.74,1.05-1.84,1.74-3.85,1.93-5.96s-.1-4.4-.43-6.57h0Z"/>
            <path class="cls-1"
                  d="M55.93,125.65c2.52,2.87,5.29,5.87,6.13,9.72,.33,1.51,.33,3.24,.08,4.77-.21,1.27-1.09,2.21-1.9,3.14,0,0,.02,0,.02,0,.79-.9,1.69-1.82,1.91-3.04,.29-1.55,.26-3.34-.07-4.87-.82-3.79-3.58-6.97-6.17-9.72h0Z"/>
            <path class="cls-1"
                  d="M67.57,60.48c8.38,.72,16.84,.34,25.12-1.13s16.34-4.02,23.96-7.54c2.18-1.01,4.32-2.09,6.43-3.25,1.87-1.03,3.99-2.03,5.38-3.7,0,0-.04-.01-.05,0-1.36,1.53-3.26,2.48-5.03,3.47-1.87,1.04-3.78,2.02-5.71,2.94-3.74,1.78-7.6,3.33-11.53,4.63-7.88,2.61-16.09,4.2-24.38,4.73-4.73,.3-9.47,.24-14.19-.15,0,0-.02,0,0,0h0Z"/>
            <path class="cls-1"
                  d="M66.56,59.74c.96,12.24-1.8,24.65-9.11,34.65-1.85,2.54-4.13,4.76-7.16,5.79-.02,0,.02,.01,.03,0,2.55-.84,4.6-2.54,6.28-4.59,1.86-2.26,3.43-4.82,4.77-7.41,2.86-5.53,4.53-11.63,5.14-17.82,.35-3.53,.35-7.09,.05-10.62h-.01Z"/>
            <path class="cls-1"
                  d="M49.36,102.32c1.9,2.75,3.19,5.98,4.05,9.2s1.17,6.59,.17,9.81c-.6,1.91-1.64,3.63-3.05,5.06,0,0,.02,0,.03,0,2.51-2.51,3.72-5.88,3.71-9.4s-1.04-6.78-2.34-9.88c-.7-1.67-1.52-3.29-2.55-4.78,0,0-.03,0-.02,0h0Z"/>
            <path class="cls-1"
                  d="M35.98,128.68c2.24,.07,4.06,1.45,5.58,2.98,1.36,1.37,2.68,2.8,3.75,4.42,2.11,3.16,3.2,7.33,1.36,10.88,0,0,.02,0,.03,0,1.97-3.69,.68-8.01-1.58-11.24-1.22-1.74-2.71-3.36-4.28-4.8-1.33-1.22-3.01-2.19-4.85-2.24-.01,0-.02,0,0,0h0Z"/>
            <path class="cls-1"
                  d="M46.16,149.13c4.9,5.11,7.65,11.99,8.18,19.01s-1.37,14.67-4.56,21.2c-1.82,3.74-4.1,7.25-6.82,10.41,0,0,.03,0,.04,0,4.88-5.57,8.41-12.41,10.25-19.58s1.71-14.32-.83-21.09c-1.39-3.7-3.49-7.11-6.24-9.96h-.02Z"/>
            <path class="cls-1"
                  d="M46.33,149.02c4.35,2.94,8.98,6.09,11.63,10.76,2.43,4.29,2.61,9.62,2.32,14.43-.16,2.61-.5,5.24-1.18,7.77,0,0,.02,0,.02,0,1.29-4.75,1.61-9.92,1.07-14.8-.25-2.29-.74-4.57-1.78-6.64-1.19-2.37-2.95-4.4-4.91-6.17-2.22-2-4.68-3.69-7.15-5.35h0Z"/>
            <path class="cls-1"
                  d="M55.64,185.4c-.41-.33,.7-.75,.87-.83,.44-.2,.92-.36,1.33-.63,.71-.46,1.36-1.04,2.05-1.52s1.45-.97,2.2-1.41c3.15-1.87,6.56-3.28,10.07-4.34s7.31-1.8,11.04-2.29,7.52-.84,11.28-.86c3.5-.01,7.7,.51,9.75,3.74,0,0,.03,0,.03,0-1.67-2.7-4.93-3.5-7.9-3.7-3.55-.23-7.19,.15-10.72,.52-7.58,.79-15.24,2.42-22.01,6.04-1.96,1.04-3.81,2.26-5.55,3.62-.56,.44-1.24,.65-1.88,.96-.2,.1-.93,.41-.58,.69h0Z"/>
            <path class="cls-1"
                  d="M62.9,177.9c5.68-1.36,11.61-1.08,17.14,.79,2.65,.9,5.17,2.15,7.5,3.7s4.59,3.36,6.26,5.54c2.04,2.66,1.28,6.15,1.54,9.24,0,.02,.06,.01,.06,0-.1-2.79,.42-5.98-1.02-8.53-.72-1.27-1.91-2.34-2.98-3.32s-2.14-1.83-3.3-2.64c-4.66-3.23-10.17-5.21-15.83-5.62-3.14-.22-6.32,.03-9.37,.81-.01,0,0,0,.01,0h0Z"/>
            <path class="cls-1"
                  d="M95.38,197.18c5.21-4.23,11.63-6.9,18.15-8.32s13.08-1.59,19.41,.12c1.69,.46,3.37,1.01,4.96,1.74,1.34,.62,2.71,1.37,3.67,2.51,0,0,.04,0,.03,0-.82-1.01-1.97-1.7-3.11-2.27-1.36-.68-2.81-1.21-4.26-1.65-2.83-.86-5.73-1.38-8.68-1.53-6.91-.35-13.96,1.01-20.35,3.64-3.53,1.45-6.89,3.34-9.86,5.75-.01,0,.03,.01,.03,0h0Z"/>
            <path class="cls-1"
                  d="M141.82,194.92c4.98-8.43,10.44-16.9,18.43-22.8,4.29-3.17,9.18-5.48,14.33-6.85s10.81-1.83,16.27-1.63c6.22,.22,12.39,1.21,18.49,2.44,.01,0,.07,0,.04-.01-10.45-2.14-21.39-3.58-31.98-1.48-5.24,1.04-10.28,3-14.8,5.86-4.26,2.7-7.96,6.2-11.17,10.08-3.68,4.46-6.74,9.39-9.64,14.39h.01Z"/>
            <path class="cls-1"
                  d="M203.96,125.66c-3.16,6.32-4.86,13.35-5,20.41-.07,3.49,.24,6.99,.95,10.41,.28,1.35,.62,2.58,1.42,3.72,.75,1.07,1.73,1.97,2.76,2.76,2.44,1.88,5.24,3.22,7.95,4.65,0,0,.03,0,.02,0-2.44-1.31-4.95-2.52-7.21-4.14-2.08-1.48-4.03-3.35-4.63-5.92-1.56-6.73-1.59-13.81-.16-20.56,.83-3.92,2.15-7.72,3.92-11.32,0,0-.02,0-.02,0h0Z"/>
            <path class="cls-1"
                  d="M201.2,125.43c-.73,.21-1.25,.49-1.67,1.13-.55,.84-1.12,1.67-1.67,2.51-1.23,1.89-2.27,3.89-3.16,5.96-1.88,4.4-3.04,9.1-3.5,13.85-.26,2.62-.29,5.26-.07,7.89,0,0,.04,0,.04,0-.7-9.09,1.34-18.69,6.01-26.54,.62-1.04,1.35-2.01,1.99-3.04,.21-.33,.39-.7,.65-1,.36-.42,.87-.61,1.39-.76,0,0,0,0-.01,0h0Z"/>
            <path class="cls-1"
                  d="M190.05,65.83c-.54-.13-1.15,0-1.62,.29-.42,.26-.52,.61-.69,1.06-.23,.62-.43,1.24-.62,1.87-.83,2.73-1.34,5.55-1.53,8.4-.29,4.46,.27,9.04,2.31,13.06,1.06,2.09,2.54,3.98,4.52,5.25,0,0,.03,0,.02,0-3.29-2.16-5.15-5.91-6.1-9.62-1.09-4.25-.96-8.75-.17-13.05,.25-1.36,.58-2.72,.98-4.04,.23-.77,.46-1.56,.78-2.3s1.32-1.1,2.12-.91c0,0,.02,0,.01,0h0Z"/>
            <path class="cls-1"
                  d="M144.57,58.65c-1.11,3.6-.27,7.37,1,10.81,1.07,2.91,2.36,5.95,4.81,7.98s5.68,2.73,8.77,2.87c2.93,.13,5.89-.04,8.8-.29,3.46-.3,6.94-.76,10.32-1.63,.01,0-.02,0-.02,0-2.97,.76-6.02,1.2-9.06,1.51s-6.15,.48-9.22,.43c-3.27-.06-6.74-.67-9.37-2.76-2.44-1.93-3.75-4.86-4.83-7.7-1.35-3.55-2.31-7.46-1.17-11.21h-.01Z"/>
            <path class="cls-1"
                  d="M55.26,186.02c6.93,3.5,13.15,8.8,17.59,15.17,2.16,3.11,3.73,6.52,5.06,10.05,1.4,3.71,2.53,7.53,3.46,11.39,1.01,4.19,1.78,8.43,2.29,12.71,0,0,.04,0,.04,0-.81-7.76-2.64-15.51-5.27-22.85-1.23-3.45-2.66-6.86-4.63-9.95-2.13-3.34-4.76-6.35-7.69-9.01-3.26-2.97-6.9-5.53-10.84-7.51,0,0-.02,0-.02,0h0Z"/>
            <path class="cls-1"
                  d="M57.63,184.2l-.24-.22c.35-.19,.67-.18,.94,.02,.19,.08,.37,.21,.55,.31,.3,.18,.61,.35,.91,.53,.72,.43,1.44,.88,2.15,1.34,1.3,.84,2.57,1.72,3.81,2.63,2.6,1.91,5.07,4,7.39,6.23,4.55,4.38,8.77,9.38,11.81,14.94,1.78,3.26,3.1,6.78,3.54,10.48,0,0,.04,0,.04,0-.82-7.24-4.96-13.61-9.49-19.11s-9.75-10.24-15.58-14.2c-1.66-1.13-3.36-2.2-5.11-3.17-.19-.11-.69-.45-.91-.17-.14,.18-.01,.43,.2,.38,0,0,0,0,0,0h0Z"/>
            <path class="cls-1"
                  d="M110.79,237.21c6.59-8.84,15.43-15.98,26.15-19.02,3.14-.89,6.37-1.42,9.62-1.64,.04,0,.02-.01,0-.01-5.51,.36-10.94,1.66-15.97,3.95s-9.5,5.5-13.42,9.32c-2.34,2.28-4.47,4.77-6.42,7.4,0,0,.03,0,.04,0h0Z"/>
            <path class="cls-1"
                  d="M41.19,151.12c5.19,10.59,9.5,22.15,8.21,34.15-.34,3.15-1.11,6.25-2.45,9.13,0,0,.04,0,.04,0,2.46-5.15,2.98-11.01,2.56-16.64s-1.94-11.64-4.09-17.14c-1.26-3.23-2.72-6.37-4.25-9.48,0,0-.02,0-.02,0h0Z"/>
            <path class="cls-1"
                  d="M39.12,151.8c5.22,8.78,8.75,18.56,10.1,28.7,.38,2.85,.57,5.71,.64,8.58,0,.01,.04,0,.04,0-.07-10.17-2.47-20.3-6.69-29.53-1.21-2.66-2.58-5.24-4.08-7.75h0Z"/>
            <path class="cls-1"
                  d="M63.53,177.18c-3.27-1.01-6.7-1.5-10.09-1.82-3.71-.35-7.44-.47-11.16-.44-1.93,.02-3.85,.08-5.78,.21-.04,0-.04,.02,0,.02,7.13-.44,14.42-.33,21.48,.81,1.86,.3,3.71,.69,5.52,1.23,0,0,.03,0,.03,0h0Z"/>
            <path class="cls-1"
                  d="M53.4,188.01c5.96,6.53,11.54,13.48,15.98,21.15,4.18,7.23,7.22,15.06,8.95,23.23,1.05,4.96,1.63,10,1.89,15.06,0,0,.04,0,.04,0-.38-8.79-1.89-17.54-4.93-25.81-2.86-7.78-7.02-15-11.93-21.65-3.09-4.18-6.46-8.15-9.98-11.98h-.01Z"/>
            <path class="cls-1"
                  d="M90.01,214.51c-12.67-5.59-26.81-7.26-40.45-4.95-3.93,.67-7.8,1.66-11.58,2.93-.01,0,.02,0,.02,0,13.16-4.43,27.42-5.2,40.91-1.79,3.79,.96,7.49,2.24,11.07,3.81,0,0,.03,0,.02,0h0Z"/>
            <path class="cls-1"
                  d="M37.7,209.83c-.74,1.29,.94,2.51,2.14,2.35,1.97-.26,3.03-2.35,4.62-3.27,.86-.5,1.83-.62,2.74-.17,.49,.24,.93,.58,1.43,.8,.53,.23,1.07,.28,1.61,.03,.48-.22,.87-.61,1.35-.84,.74-.35,1.58-.41,2.38-.35,.65,.06,1.29,.2,1.92,.36s1.51,.3,1.9,.89c.55,.84-.04,2.03-.46,2.79-.56,1-1.12,1.96-1.53,3.04-.78,2.1-1.09,4.39-.87,6.62,.25,2.55,1.22,4.96,1.54,7.5s.18,5.22,0,7.81c-.42,6.08-.97,12.15-1.26,18.24,0,.02,.08,.02,.08,0,.5-5.37,.8-10.77,1.18-16.15,.18-2.62,.43-5.25,.32-7.87s-.83-5-1.38-7.53c-.51-2.32-.53-4.68,.04-6.99,.29-1.18,.72-2.31,1.28-3.38,.45-.86,1.05-1.65,1.31-2.6,.2-.76,.12-1.54-.63-1.95-.84-.46-2.04-.65-2.97-.78-.81-.11-1.66-.12-2.45,.13-.39,.12-.74,.31-1.08,.54-.19,.13-.37,.29-.57,.39-.84,.43-1.41,.19-2.08-.18-.78-.44-1.5-.95-2.44-.87s-1.79,.67-2.48,1.29c-.93,.84-1.74,1.92-2.97,2.33-.88,.3-1.83,.07-2.43-.65-.38-.46-.49-1.01-.2-1.54,0,0-.02,0-.03,0h0Z"/>
            <path class="cls-1"
                  d="M107.26,164.46c-2.5,.89-4.07,3.75-3.25,6.32,.44,1.4,1.12,2.55,.68,4.04-.35,1.2-1.11,2.25-1.81,3.27-.65,.95-1.34,1.91-1.72,3.01-.47,1.37-.13,2.52,.44,3.81,.3,.68,.57,1.38,.51,2.13-.07,.93-.59,1.73-1.17,2.43-1.06,1.28-2.32,2.38-3.41,3.64-2.15,2.47-4.03,5.33-4.53,8.63-.25,1.64-.15,3.34,.43,4.9s1.94,2.85,1.4,4.54c-.22,.69-.64,1.29-.91,1.95-.36,.87-.47,1.82-.43,2.76,.09,1.81,.66,3.57,1.01,5.34,.75,3.72,1.05,7.52,1.18,11.31,.14,4.3,.16,8.62,.11,12.93s-.29,8.72-.94,13.05c0,.01,.13,.02,.14,0,1.5-7.52,1.21-15.35,1.09-22.98-.06-3.84-.21-7.68-.75-11.48-.26-1.79-.64-3.55-1.04-5.31s-.69-3.53-.14-5.22c.23-.71,.65-1.32,.94-2,.36-.84,.34-1.64-.03-2.48-.31-.7-.74-1.33-1.04-2.04-.32-.76-.52-1.57-.61-2.38-.4-3.48,1.02-6.82,3.03-9.58,.97-1.33,2.07-2.55,3.2-3.74,1.03-1.09,2.29-2.2,2.68-3.71,.44-1.7-.85-2.97-1.08-4.57-.16-1.1,.22-2.17,.75-3.13,1.22-2.2,3.61-4.41,2.87-7.17-.24-.9-.75-1.72-.9-2.65-.12-.72-.07-1.46,.14-2.16,.46-1.58,1.63-2.9,3.18-3.46,0,0-.02,0-.03,0h0Z"/>
            <path class="cls-1"
                  d="M130.72,46.46c-1.91,.22-3.58,1.83-4.35,3.53-.36,.8-.57,1.75-.25,2.6,.39,1.01,1.49,1.47,2.29,2.1,2.31,1.83,.32,4.11-.67,6.05-.44,.86-.79,1.85-.48,2.82s1.15,1.66,1.86,2.35c.8,.79,1.55,1.73,1.14,2.92-.34,1-1.25,1.73-1.48,2.77-.26,1.16,.72,1.88,1.33,2.71,.35,.47,.55,1.01,.28,1.57-.29,.6-.91,.99-1.27,1.56-1.47,2.37,.26,5.47,1.09,7.76,1.12,3.1,1.19,6.41,.96,9.66-.47,6.56-2.17,13.91,1.95,19.72,.03,.04,.19,.01,.16-.02-3.32-5.06-2.47-11.48-1.92-17.17,.3-3.19,.54-6.44-.08-9.6-.29-1.48-.84-2.85-1.37-4.25-.48-1.25-.97-2.56-1-3.92-.02-.66,.09-1.33,.4-1.92s.81-.97,1.2-1.49c.71-.95,.08-1.76-.57-2.52-.36-.42-.77-.87-.86-1.44s.16-1.12,.45-1.6c.52-.86,1.32-1.73,1.15-2.82-.32-2.06-3.1-2.72-3.24-4.9s1.85-3.66,2.22-5.65c.23-1.23-.45-2.14-1.41-2.82-1.04-.74-2.15-1.34-2.17-2.76-.03-2.37,2.36-4.93,4.67-5.21,.03,0,0-.02-.01-.02h0Z"/>
            <path class="cls-1"
                  d="M91.89,207.71c4.14-1.72,8.93-1.03,12.77,1.14,3.47,1.96,6.37,4.91,8.76,8.07,0,0,.04,0,.04,0-3.86-5.35-9.76-10.24-16.68-10.19-1.69,.01-3.35,.33-4.9,.99h.02Z"/>
            <path class="cls-1"
                  d="M112.96,220.07c8.58-2.74,17.48-3.88,26.46-2.96,2.58,.26,5.14,.69,7.69,1.2,0,0,.04,0,.03,0-8.74-1.83-17.71-2.09-26.47-.29-2.61,.53-5.18,1.23-7.71,2.05h0Z"/>
            <path class="cls-1"
                  d="M209.46,166.04c-5.68,4.96-9.52,11.86-12.29,18.78s-4.42,14.03-5.7,21.24c-.7,3.97-1.27,7.96-1.65,11.97,0,0,.04,0,.04,0,.8-7.23,1.94-14.43,3.7-21.49s4.24-14.09,7.94-20.48c2.15-3.71,4.74-7.18,7.97-10.02,0,0-.02,0-.02,0h0Z"/>
            <path class="cls-1"
                  d="M240.9,129.08c-6.6,1.45-12.85,4.3-18.36,8.2s-10.54,9.04-14.31,14.84c-2.05,3.16-3.76,6.54-5.05,10.08,0,0,.04,0,.05,0,2.37-6.35,6.01-12.18,10.59-17.17s10.11-9.17,16.22-12.13c3.47-1.69,7.13-2.97,10.9-3.8,.01,0-.02,0-.02,0h0Z"/>
            <path class="cls-1"
                  d="M220.98,80.38c-.46,7.02,.13,14.1,1.69,20.97s4.1,13.58,7.68,19.68c1.96,3.35,4.23,6.52,6.84,9.4,0,0,.04,0,.04,0-4.66-5.27-8.3-11.33-10.96-17.84s-4.35-13.46-5.05-20.47c-.39-3.9-.47-7.82-.23-11.73h-.02Z"/>
            <path class="cls-1"
                  d="M221.15,92.04c4.02,.39,8.01,.06,11.91-.96,2.01-.53,4-1.19,5.94-1.95s3.62-1.75,5.23-3.06c.52-.43,1.13-.78,1.6-1.27,.51-.54,.64-1.25,.69-1.97,0,0-.03,0-.03,0-.05,.64-.16,1.29-.57,1.8-.38,.48-.93,.8-1.41,1.17-.7,.54-1.34,1.12-2.08,1.59-.88,.56-1.81,1.03-2.77,1.44-3.63,1.55-7.56,2.71-11.48,3.17-2.34,.27-4.69,.26-7.03,.03,0,0-.01,0,0,0h0Z"/>
            <path class="cls-1"
                  d="M227.08,82.76c-.99,10.15-.37,20.43,1.83,30.38,.63,2.84,1.39,5.64,2.27,8.4,0,0,.03,0,.03,0-3.07-9.73-4.62-19.9-4.56-30.1,.02-2.9,.17-5.8,.44-8.68h-.01Z"/>
            <path class="cls-1"
                  d="M200.18,49.93c2.54,5.55,6.49,10.39,11.37,14.06,4.58,3.44,9.84,5.66,15.47,6.7,2.67,.5,5.65,.88,8.3,.09,.02,0,0-.01-.02,0-2.61,.76-5.52,.39-8.15-.09s-5.27-1.22-7.75-2.23c-5.38-2.2-10.2-5.85-13.94-10.28-2.11-2.5-3.88-5.27-5.25-8.24,0,0-.02,0-.02,0h0Z"/>
            <path class="cls-1"
                  d="M259.04,82.2c.92,1.87,2.47,3.08,4.31,3.99,.95,.47,1.93,.88,2.89,1.32,1.14,.52,2.23,1.13,3.33,1.72,4.92,2.63,9.85,5.24,14.88,7.66,9.89,4.76,20.19,8.83,30.99,10.93,5.95,1.16,12.04,1.72,18.11,1.44,.03,0,.03-.02,0-.02-11.06,.44-22.01-1.75-32.41-5.38s-20.1-8.56-29.73-13.68c-2.36-1.25-4.7-2.46-7.13-3.57-2.16-.99-4.11-2.2-5.19-4.4,0,0-.03,0-.02,0h0Z"/>
            <path class="cls-1"
                  d="M248.83,129.49c-4,14.09-6.5,29.43-1.32,43.57,1.31,3.57,3.09,6.96,5.38,10,0,0,.04,0,.04,0-8.63-11.79-9.5-26.99-7.03-40.93,.76-4.26,1.79-8.47,2.96-12.63,0,0-.02,0-.02,0h0Z"/>
            <path class="cls-1"
                  d="M105.76,287.68c4.29-7.15,10.28-13.22,17.43-17.54s15.44-6.87,23.82-7.39c4.87-.3,9.76,.08,14.54,1.07,0,0,.03,0,.01,0-8.28-1.74-16.92-1.57-25.09,.64s-15.47,6.24-21.57,11.88c-3.59,3.32-6.67,7.15-9.17,11.35,0,0,.02,0,.02,0h0Z"/>
            <path class="cls-1"
                  d="M79.11,250.69c7.51,2.37,14.54,6.05,20.13,11.67,1.36,1.36,2.71,2.81,3.78,4.42,.97,1.45,1.72,3.04,2.28,4.69,1.16,3.46,1.52,7.16,1.43,10.79-.1,4.13-.77,8.24-1.85,12.22,0,0,.04,0,.04,0,1.98-7.02,2.84-14.9,.79-22-.49-1.68-1.15-3.32-2.05-4.83s-2.14-2.97-3.39-4.31c-2.67-2.85-5.74-5.32-9.08-7.35-3.76-2.28-7.85-4.02-12.06-5.31,0,0-.04,0-.04,0h0Z"/>
            <path class="cls-1"
                  d="M163.04,267.53c-1.23,1.16-2.8,2.73-3.15,4.45-.45,2.19,2.56,2.17,3.87,2.81,2.44,1.19,1.08,4.18,.44,6.06-.89,2.62-.57,5.25-.03,7.91s1.2,5.44,.82,8.23-1.49,5.55-1.44,8.43,1.45,5.09,2.48,7.55c.53,1.27,.91,2.57,1.02,3.95,.11,1.47-.06,2.95-.32,4.4-.94,5.14-3.64,11.81,.7,16.19,.02,.02,.12,0,.12-.01-3.68-3.89-2.06-9.74-1.03-14.33,.64-2.85,1.12-5.8,.25-8.65-.75-2.47-2.26-4.66-2.83-7.19-.62-2.74,.19-5.47,.78-8.14,.3-1.37,.55-2.76,.53-4.18s-.25-2.75-.52-4.1c-.53-2.65-1.29-5.37-.92-8.1,.17-1.25,.66-2.4,1.04-3.59,.32-1,.64-2.2,.21-3.22s-1.45-1.38-2.44-1.63-2.43-.51-2.68-1.66c-.2-.96,.49-2.02,1.01-2.76,.62-.88,1.35-1.69,2.13-2.43,0,0-.03,0-.03,0h0Z"/>
            <path class="cls-1"
                  d="M321.71,40.2c-4.06,4.25-6.96,9.48-8.41,15.18,0,0,.03,0,.03,0,1.75,.12,3.49,.25,5.24,.37,.36,.03,.77-.06,.69,.41-.05,.29-.37,.71-.51,.98-.31,.63-.61,1.26-.88,1.91-1.06,2.56-1.77,5.61-.36,8.19,.71,1.31,1.9,2.25,2.78,3.43,.74,.99,1.15,2.12,1.2,3.35,.1,2.33-.91,4.58-1.68,6.73s-1.55,4.51-.97,6.8c.7,2.73,3.18,4.58,3.2,7.55s-1.42,5.64-1,8.6c.3,2.16,1.28,4.16,2.35,6.03,2.09,3.66,5.46,7.66,4.99,12.16-.3,2.88-2.35,4.92-3.91,7.19s-2.38,5.08-2.43,7.91c-.1,6.29,2.98,11.89,5.96,17.22,1.54,2.76,3.08,5.53,4.2,8.49,.92,2.43,1.55,4.96,1.89,7.53,1.39,10.38-1.82,21.3-8.7,29.2-.86,.98-1.78,1.91-2.74,2.79,0,0,.12,.03,.15,0,7.53-6.77,11.84-16.74,11.96-26.84,.06-5.21-1.03-10.35-3.21-15.09-2.58-5.59-6.34-10.66-8.16-16.59-.83-2.71-1.26-5.6-.95-8.44,.33-2.99,1.63-5.41,3.41-7.78,1.46-1.94,2.79-3.93,2.78-6.45,0-2.06-.83-4.02-1.78-5.82-2.04-3.83-5.2-7.46-5.66-11.93-.29-2.86,1.11-5.51,1.04-8.35s-2.51-4.73-3.2-7.42c-1.17-4.56,2.58-8.66,2.64-13.13,.02-1.09-.23-2.16-.78-3.11-.66-1.13-1.67-1.99-2.48-3-1.94-2.42-1.75-5.42-.78-8.21,.52-1.49,1.22-2.9,1.97-4.28,0-.02-.03-.02-.04-.02-1.08-.07-2.16-.15-3.24-.22l-1.54-.11c-.25-.02-.53,0-.77-.05-.43-.1-.5-.1-.46-.55,.08-.84,.5-1.77,.78-2.57,.31-.89,.66-1.76,1.05-2.62,1.57-3.49,3.74-6.69,6.38-9.46h-.01Z"/>
            <path class="cls-1"
                  d="M33.83,159.91c-1.26,2.04-2.52,4.08-3.77,6.12-.63,1.02-1.26,2.04-1.88,3.06-.51,.83-1.16,1.72-1.26,2.73-.29,2.94,4.04,3.35,5.9,4.36,3.22,1.75,2.71,5.67,1.66,8.61s-3.47,6.83-1.67,10.1c.91,1.64,2.77,2.23,3.94,3.61,.99,1.17,1.22,2.65,.99,4.14-.51,3.24-2.46,6.07-3,9.31-.64,3.82,1.77,6.78,3.57,9.89,1.02,1.77,1.71,3.65,1.94,5.69s.03,4.28-.36,6.37c-.74,4-2.18,7.85-2.79,11.87-.52,3.46-.59,7.36,1.22,10.48,.43,.74,.96,1.42,1.55,2.05,.04,.05,.3,0,.28-.03-2.25-2.83-2.84-6.61-2.61-10.13,.25-3.91,1.47-7.61,2.4-11.39,1-4.07,1.73-8.5,.2-12.54-1.29-3.43-4.3-6.18-4.83-9.9-.47-3.34,1.4-6.48,2.42-9.54,.46-1.36,.84-2.84,.55-4.27-.33-1.63-1.5-2.63-2.8-3.54-.81-.56-1.59-1.16-2.1-2.02-.43-.73-.63-1.57-.67-2.41-.09-1.79,.47-3.58,1.1-5.23,1.07-2.82,2.79-6.51,1.08-9.43-.72-1.24-1.99-1.86-3.28-2.34s-2.73-.8-3.74-1.74c-1.55-1.44-.37-3.35,.51-4.8,1.23-2.04,2.47-4.08,3.7-6.12,.6-.98,1.19-1.97,1.78-2.95,0,0-.03,0-.04,0h0Z"/>
        </g>
    </g>
</svg>