<?xml version="1.0" encoding="UTF-8"?>
<svg id="Layer_2" xmlns="http://www.w3.org/2000/svg" viewBox="0 0 1803.78 1601.85">
    <defs>
        <style>
            .cls-1{fill:#000073;}.cls-2{fill:#fff;}.cls-3{fill:#ef4141;}.cls-4{fill:#d878ef;}.cls-5{fill:#5f537b;}.cls-6{opacity:.3;}.cls-7{opacity:.4;}.cls-8{opacity:.55;}
        </style>
    </defs>
    <g id="Layer_1-2">
        <path class="cls-2"
              d="M1652.32,576.12c-.05-.15-.16-.26-.21-.41-4.91-7.85-9.91-15.7-15.08-23.49,.21-.1,.41-.21,.62-.31,94.54-42.55,160.33-137.56,160.33-247.95,0-150.1-121.65-271.81-271.81-271.81-119.17,0-220.48,76.73-257.09,183.46-9.6-5.32-19.36-10.48-29.17-15.49-33.05-16.88-67.07-31.14-101.77-42.75,93.51-37.44,7.8-99.76-92.48-27.62,101.51-74.82,18.85-128.31-132.96-10.22,111.84-178.14-73.58-136.11-167.19-11-16.37,21.84-39.29,37.69-65.21,46.06-37.69,12.08-74.61,27.26-110.4,45.54-13.22,6.76-26.28,13.79-39.14,21.07C495.8,111.56,393.04,32.15,271.81,32.15,121.7,32.15,0,153.85,0,303.95c0,114.22,70.43,211.96,170.24,252.18-4.23,6.51-8.42,13.01-12.44,19.57C-14.35,853.25-20.34,1185.57,237.42,1395.77c139.78,114.01,357.05,192.03,667.48,206.08,854.92-38.52,1003.68-563.29,771.17-985.14-7.49-13.63-15.39-27.16-23.75-40.58Zm-126.15-420.05c81.69,0,147.88,66.2,147.88,147.88,0,70.79-49.67,129.91-116.13,144.42-51.74-59.48-111.64-114.47-178.45-162.75,8.98-73.06,71.26-129.55,146.69-129.55ZM123.92,303.95c0-81.69,66.2-147.88,147.88-147.88s142.25,60.72,147.47,137.66c-49,36.3-94.08,76.26-134.87,118.97l-.31,.31c-11.62,12.19-22.93,24.58-33.82,37.23-.72-.1-1.45-.21-2.17-.36-70.43-11.26-124.18-72.34-124.18-145.92Z"/>
        <path class="cls-5"
              d="M538.09,221.18s-136.01,84.47-246.35,191.51c-.1,.1-.21,.21-.31,.31-12.39,12.03-24.47,24.37-35.99,36.87-31.81,34.54-59.38,70.59-77.87,106.26C77.76,515.92,7.33,418.17,7.33,303.95,7.33,153.85,129.04,32.15,279.14,32.15c121.24,0,223.99,79.41,258.95,189.04Z"/>
        <g class="cls-8">
            <path class="cls-2"
                  d="M50.34,323.52c0,97.38,51.22,182.84,128.21,230.81-.36,.62-.67,1.19-.98,1.81C77.76,515.92,7.33,418.17,7.33,303.95,7.33,153.85,129.04,32.15,279.14,32.15c48.64,0,94.29,12.75,133.73,35.11-28.35-10.07-58.92-15.54-90.72-15.54-150.1,0-271.81,121.7-271.81,271.81Z"/>
        </g>
        <path class="cls-5"
              d="M1273.02,221.18s136.01,84.47,246.35,191.51c.1,.1,.21,.21,.31,.31,12.39,12.03,24.47,24.37,35.99,36.87,31.81,34.54,59.38,70.59,77.87,106.26,99.81-40.22,170.24-137.97,170.24-252.18,0-150.1-121.7-271.81-271.81-271.81-121.24,0-223.99,79.41-258.95,189.04Z"/>
        <g class="cls-8">
            <path class="cls-2"
                  d="M1748.31,139.45c-49-48.28-116.28-78.02-190.53-78.02-117.42,0-217.54,74.51-255.49,178.81-18.28-12.24-29.28-19.05-29.28-19.05,34.96-109.62,137.71-189.04,258.95-189.04,88.3,0,166.73,42.08,216.35,107.3Z"/>
        </g>
        <path class="cls-4"
              d="M1681.39,303.95c0,70.79-49.67,129.91-116.13,144.42-51.74-59.48-111.63-114.47-178.45-162.75,8.98-73.06,71.26-129.55,146.7-129.55,81.69,0,147.88,66.2,147.88,147.88Z"/>
        <g class="cls-6">
            <path class="cls-1"
                  d="M1664.5,235.23c-21.22-11.77-45.64-18.49-71.62-18.49-71,0-130.38,50.03-144.53,116.85-19.78-16.63-40.33-32.63-61.55-47.97,8.98-73.06,71.26-129.55,146.7-129.55,56.85,0,106.21,32.07,131,79.16Z"/>
        </g>
        <path class="cls-4"
              d="M426.61,293.73c-63.1,46.78-119.79,99.6-169,156.51-71.46-10.38-126.35-71.93-126.35-146.28,0-81.69,66.2-147.88,147.88-147.88s142.25,60.72,147.47,137.66Z"/>
        <g class="cls-6">
            <path class="cls-1"
                  d="M403.42,223.87c-19.31-9.29-40.95-14.46-63.77-14.46-81.69,0-147.88,66.2-147.88,147.88,0,29.48,8.62,56.95,23.6,80.03-49.73-23.7-84.11-74.56-84.11-133.37,0-81.69,66.2-147.88,147.88-147.88,52.15,0,98,27,124.28,67.8Z"/>
        </g>
        <path class="cls-5"
              d="M528.86,721.33s186.86-27.97,194.56,150.39c7.7,178.36-32.6,387.28-325.9,358.24-286.98-28.42-217.67-269.38-188.48-303.81,82.34-114.41,187.46-185.53,319.81-204.82Z"/>
        <ellipse class="cls-2" cx="536.68" cy="987.87" rx="142" ry="154.04"/>
        <ellipse class="cls-1" cx="578.79" cy="987.87" rx="99.76" ry="124.14"/>
        <ellipse class="cls-2" cx="556.85" cy="939.25" rx="38.73" ry="43.89"/>
        <path class="cls-1"
              d="M536.68,1157.4c-86.84,0-157.49-76.05-157.49-169.53s70.65-169.53,157.49-169.53,157.49,76.05,157.49,169.53-70.65,169.53-157.49,169.53Zm0-308.09c-69.75,0-126.5,62.16-126.5,138.55s56.75,138.55,126.5,138.55,126.51-62.16,126.51-138.55-56.75-138.55-126.51-138.55Z"/>
        <path class="cls-1"
              d="M578.78,1123.67c-61.44,0-111.42-60.92-111.42-135.8s49.98-135.8,111.42-135.8,111.42,60.92,111.42,135.8-49.98,135.8-111.42,135.8Zm0-248.28c-48.58,0-88.11,50.46-88.11,112.49s39.53,112.49,88.11,112.49,88.11-50.46,88.11-112.49-39.53-112.49-88.11-112.49Z"/>
        <path class="cls-1"
              d="M1055.31,1152.63c-6.71,55.15-27.52,97.64-55.82,127.59-65.89,70.02-172.2,71.57-233.03,6.4-28.3-30.26-46.78-75.03-46.78-133.99,111.89,22.36,223.73,22.36,335.63,0Z"/>
        <path class="cls-3"
              d="M999.49,1269.22c-65.89,70.02-172.2,71.57-233.03,6.4,65.89-70.02,172.2-71.57,233.03-6.4Z"/>
        <path class="cls-1"
              d="M809.04,975.13c39.35-22.67,136.31-23.22,178.43-1.64,15.79,8.09,20.13,27.19,9.58,40.75-49.27,63.28-154.41,72.33-198.18-2.25-7.55-12.87-3.25-29.12,10.18-36.86Z"/>
        <g class="cls-7">
            <path class="cls-2"
                  d="M871.92,982.96c11.84-3.65,41.02-3.74,53.69-.26,4.75,1.3,6.06,4.38,2.88,6.56-14.83,10.18-46.46,11.64-59.64-.36-2.27-2.07-.98-4.69,3.06-5.93Z"/>
        </g>
        <path class="cls-1"
              d="M877,1349.64c-3.42,0-6.82-.1-10.22-.31-80.93-4.91-162.59-67.63-162.59-196.7,0-4.64,2.08-9.04,5.67-11.98,3.59-2.94,8.3-4.13,12.86-3.21,109.34,21.87,220.21,21.87,329.55,0,4.86-.97,9.92,.44,13.56,3.83,3.65,3.38,5.45,8.3,4.85,13.23-15.8,129.87-107.61,195.14-193.69,195.14Zm-141.13-178.2c7.27,96.22,70.29,143.18,132.79,146.97,67.84,4.08,146.4-40.34,167.88-146.51-99.87,17.38-200.81,17.23-300.66-.45Z"/>
        <path class="cls-1"
              d="M898.99,1184.8c-8.55,0-15.49-6.93-15.49-15.49v-119.96c0-8.55,6.94-15.49,15.49-15.49s15.49,6.93,15.49,15.49v119.96c0,8.55-6.94,15.49-15.49,15.49Z"/>
        <path class="cls-5"
              d="M1247.65,713.34s-198.36-27.97-206.54,150.39c-8.18,178.36,34.6,387.28,345.95,358.24,304.65-28.42,231.07-269.38,200.09-303.81-87.41-114.41-198.99-185.53-339.5-204.82Z"/>
        <ellipse class="cls-2" cx="1267.82" cy="987.87" rx="142" ry="154.04"/>
        <ellipse class="cls-1" cx="1225.72" cy="987.87" rx="99.76" ry="124.14"/>
        <ellipse class="cls-2" cx="1246.65" cy="948.25" rx="38.73" ry="43.89"/>
        <path class="cls-1"
              d="M1267.82,1157.4c-86.84,0-157.49-76.05-157.49-169.53s70.65-169.53,157.49-169.53,157.49,76.05,157.49,169.53-70.65,169.53-157.49,169.53Zm0-308.09c-69.76,0-126.51,62.16-126.51,138.55s56.75,138.55,126.51,138.55,126.51-62.16,126.51-138.55-56.75-138.55-126.51-138.55Z"/>
        <path class="cls-1"
              d="M1225.72,1123.67c-61.44,0-111.42-60.92-111.42-135.8s49.98-135.8,111.42-135.8,111.42,60.92,111.42,135.8-49.98,135.8-111.42,135.8Zm0-248.28c-48.58,0-88.11,50.46-88.11,112.49s39.53,112.49,88.11,112.49,88.11-50.46,88.11-112.49-39.53-112.49-88.11-112.49Z"/>
        <path class="cls-1"
              d="M1387.08,708.95c-5.31,0-10.59-2.23-14.32-6.58-47.55-55.47-124.05-55.27-124.87-55.38h-.19c-10.31,0-18.74-8.29-18.87-18.61-.13-10.39,8.15-18.92,18.54-19.08,3.81,0,94.73-.62,154.01,68.54,6.77,7.9,5.86,19.8-2.05,26.58-3.55,3.05-7.92,4.54-12.26,4.54Z"/>
        <path class="cls-1"
              d="M417.43,708.95c-4.34,0-8.7-1.49-12.26-4.54-7.91-6.78-8.82-18.68-2.05-26.58,59.29-69.17,150.2-68.55,154.01-68.54,10.41,.16,18.72,8.73,18.56,19.14-.16,10.31-8.57,18.56-18.84,18.56-.09,0,.02,0-.31,0-2.74,0-77.87,.63-124.79,55.38-3.73,4.35-9.01,6.58-14.32,6.58Z"/>
        <g class="cls-6">
            <path class="cls-1"
                  d="M864.9,1586.85c854.92-38.52,1003.68-563.28,771.17-985.14-9.91-16.26-18.02-30.05-23.75-40.58-.05-.15-.16-.26-.21-.41-4.23-7.8-9.09-15.75-14.46-23.8-31.96-48.3-81.38-100.08-119.79-137.26,393.91,910.38-593.84,1237.92-1243.7,987.3l3.25,8.83c55.1,44.94,122.3,84.26,202.45,116.3,116,40.73,256.82,67.16,425.04,74.77Z"/>
        </g>
    </g>
</svg>