<svg width="1458" height="272" viewBox="0 0 1458 272" fill="none" xmlns="http://www.w3.org/2000/svg">
<path opacity="0.1" d="M0 239.6L30.375 228.766C60.75 218.337 121.5 196.063 182.25 196.366C243 196.063 303.75 218.338 364.5 185.634C425.25 153.538 486 66.4625 546.75 61.4C607.5 56.3375 668.25 131.263 729 180.166C789.75 228.463 850.5 250.738 911.25 218.034C972 185.938 1032.75 98.8625 1093.5 50.5663C1154.25 1.66253 1215 -8.46247 1275.75 7.43377C1336.5 23.9375 1397.25 66.4625 1427.63 88.4338L1458 110V272H1427.63C1397.25 272 1336.5 272 1275.75 272C1215 272 1154.25 272 1093.5 272C1032.75 272 972 272 911.25 272C850.5 272 789.75 272 729 272C668.25 272 607.5 272 546.75 272C486 272 425.25 272 364.5 272C303.75 272 243 272 182.25 272C121.5 272 60.75 272 30.375 272H0V239.6Z" fill="#0DCCC2"/>
</svg>
